<?xml version="1.0" standalone="no"?>
<!DOCTYPE svg PUBLIC "-//W3C//DTD SVG 20010904//EN"
 "http://www.w3.org/TR/2001/REC-SVG-20010904/DTD/svg10.dtd">
<svg version="1.0" xmlns="http://www.w3.org/2000/svg"
 width="100.000000pt" height="100.000000pt" viewBox="0 0 100.000000 100.000000"
 preserveAspectRatio="xMidYMid meet">
<metadata>
Created by potrace 1.14, written by Peter Selinger 2001-2017
</metadata>
<g transform="translate(0.000000,100.000000) scale(0.100000,-0.100000)"
fill="#000000" stroke="none">
<path d="M116 980 c-50 -25 -93 -74 -106 -119 -14 -52 -13 -679 2 -722 15 -44
41 -77 85 -109 l35 -25 342 -3 c243 -2 353 0 384 9 55 15 118 76 132 128 16
62 12 697 -6 738 -19 45 -81 101 -123 113 -21 6 -177 10 -371 10 -311 -1 -338
-2 -374 -20z"/>
</g>
</svg>
